<mxfile host="app.diagrams.net" modified="2023-08-23T20:55:05.402Z" agent="Mozilla/5.0 (X11; Linux x86_64; rv:109.0) Gecko/20100101 Firefox/116.0" etag="Y9hIQ5H6NV-Y7vivxWUR" version="21.6.9" type="github">
  <diagram name="Página-1" id="OSdEFI3gPafcqfG-muKi">
    <mxGraphModel dx="880" dy="1594" grid="1" gridSize="10" guides="1" tooltips="1" connect="1" arrows="1" fold="1" page="1" pageScale="1" pageWidth="827" pageHeight="1169" math="0" shadow="0">
      <root>
        <mxCell id="0" />
        <mxCell id="1" parent="0" />
        <mxCell id="3pppeD84C1NOd-Fdeq-x-23" value="Pago" style="html=1;overflow=block;blockSpacing=1;whiteSpace=wrap;rhombus;fontSize=13;fontColor=#333333;align=center;spacing=3.8;strokeColor=#333333;strokeOpacity=100;fillOpacity=100;rounded=1;absoluteArcSize=1;arcSize=12;fillColor=#ffffff;strokeWidth=0.8;lucidId=9kjoKEO0J63d;" parent="1" vertex="1">
          <mxGeometry x="378" y="603" width="120" height="90" as="geometry" />
        </mxCell>
        <mxCell id="3pppeD84C1NOd-Fdeq-x-24" value="Busca pagos no dia atual" style="html=1;overflow=block;blockSpacing=1;whiteSpace=wrap;fontSize=13;fontColor=#333333;align=center;spacing=9;strokeColor=#333333;strokeOpacity=100;fillOpacity=100;rounded=1;absoluteArcSize=1;arcSize=12;fillColor=#c3f7c8;strokeWidth=0.8;lucidId=lljo5tmwrwtR;" parent="1" vertex="1">
          <mxGeometry x="170" y="623" width="139" height="50" as="geometry" />
        </mxCell>
        <mxCell id="3pppeD84C1NOd-Fdeq-x-25" value="Busca pagos no dia anterior" style="html=1;overflow=block;blockSpacing=1;whiteSpace=wrap;fontSize=13;fontColor=#333333;align=center;spacing=9;strokeColor=#333333;strokeOpacity=100;fillOpacity=100;rounded=1;absoluteArcSize=1;arcSize=12;fillColor=#c3f7c8;strokeWidth=0.8;lucidId=VmjoWpg3XlXo;" parent="1" vertex="1">
          <mxGeometry x="170" y="822" width="139" height="50" as="geometry" />
        </mxCell>
        <mxCell id="3pppeD84C1NOd-Fdeq-x-26" value="" style="html=1;jettySize=18;whiteSpace=wrap;fontSize=13;strokeColor=#333333;strokeOpacity=100;strokeWidth=0.8;rounded=1;arcSize=24;edgeStyle=orthogonalEdgeStyle;startArrow=none;endArrow=block;endFill=1;exitX=1.003;exitY=0.5;exitPerimeter=0;entryX=0.022;entryY=0.5;entryPerimeter=0;lucidId=NnjojEkath0j;" parent="1" source="3pppeD84C1NOd-Fdeq-x-24" target="3pppeD84C1NOd-Fdeq-x-23" edge="1">
          <mxGeometry width="100" height="100" relative="1" as="geometry">
            <Array as="points" />
          </mxGeometry>
        </mxCell>
        <mxCell id="3pppeD84C1NOd-Fdeq-x-27" value="" style="html=1;jettySize=18;whiteSpace=wrap;fontSize=13;fontColor=#333333;align=center;strokeColor=#333333;strokeOpacity=100;strokeWidth=0.8;rounded=1;arcSize=24;edgeStyle=orthogonalEdgeStyle;startArrow=none;endArrow=block;endFill=1;exitX=0.978;exitY=0.5;exitPerimeter=0;entryX=0.022;entryY=0.5;entryPerimeter=0;lucidId=Bojour8kpcXf;" parent="1" source="3pppeD84C1NOd-Fdeq-x-23" target="3pppeD84C1NOd-Fdeq-x-42" edge="1">
          <mxGeometry width="100" height="100" relative="1" as="geometry">
            <Array as="points" />
          </mxGeometry>
        </mxCell>
        <mxCell id="3pppeD84C1NOd-Fdeq-x-28" value="Sim" style="text;html=1;resizable=0;labelBackgroundColor=default;align=center;verticalAlign=middle;fontColor=#333333;fontSize=13;rounded=1;" parent="3pppeD84C1NOd-Fdeq-x-27" vertex="1">
          <mxGeometry relative="1" as="geometry" />
        </mxCell>
        <mxCell id="3pppeD84C1NOd-Fdeq-x-29" value="" style="strokeColor=none;fillColor=none;whiteSpace=wrap;fontSize=13;fontColor=#333333;align=center;spacing=3.8;strokeOpacity=100;fillOpacity=100;rounded=1;absoluteArcSize=1;arcSize=12;strokeWidth=0.8;html=1;" parent="1" vertex="1">
          <mxGeometry x="46" y="787" width="106" height="120" as="geometry" />
        </mxCell>
        <mxCell id="3pppeD84C1NOd-Fdeq-x-30" value="" style="shape=curlyBracket;rounded=1;whiteSpace=wrap;fontSize=13;fontColor=#333333;align=center;spacing=3.8;strokeColor=#333333;strokeOpacity=100;fillOpacity=100;fillColor=#ffffff;strokeWidth=0.8;" parent="3pppeD84C1NOd-Fdeq-x-29" vertex="1">
          <mxGeometry x="91" width="15" height="120" as="geometry" />
        </mxCell>
        <mxCell id="3pppeD84C1NOd-Fdeq-x-31" value="Todos os dias às 1am" style="strokeColor=none;fillColor=none;whiteSpace=wrap;fontSize=13;fontColor=#333333;align=center;spacing=3.8;strokeOpacity=100;fillOpacity=100;rounded=1;absoluteArcSize=1;arcSize=12;strokeWidth=0.8;" parent="3pppeD84C1NOd-Fdeq-x-29" vertex="1">
          <mxGeometry width="91" height="120" as="geometry" />
        </mxCell>
        <mxCell id="3pppeD84C1NOd-Fdeq-x-32" value="Pago" style="html=1;overflow=block;blockSpacing=1;whiteSpace=wrap;rhombus;fontSize=13;fontColor=#333333;align=center;spacing=3.8;strokeColor=#333333;strokeOpacity=100;fillOpacity=100;rounded=1;absoluteArcSize=1;arcSize=12;fillColor=#ffffff;strokeWidth=0.8;lucidId=jqjoqKAam3mi;" parent="1" vertex="1">
          <mxGeometry x="371" y="799" width="120" height="90" as="geometry" />
        </mxCell>
        <mxCell id="3pppeD84C1NOd-Fdeq-x-33" value="Marca como pago" style="html=1;overflow=block;blockSpacing=1;whiteSpace=wrap;fontSize=13;fontColor=#008a0e;align=center;spacing=3.8;strokeColor=#008a0e;strokeOpacity=100;fillOpacity=100;rounded=1;absoluteArcSize=1;arcSize=12;fillColor=#ffffff;strokeWidth=0.8;lucidId=jqjoMAoq-irJ;" parent="1" vertex="1">
          <mxGeometry x="851" y="776" width="151" height="46" as="geometry" />
        </mxCell>
        <mxCell id="3pppeD84C1NOd-Fdeq-x-34" value="" style="html=1;jettySize=18;whiteSpace=wrap;fontSize=13;fontColor=#333333;align=center;strokeColor=#333333;strokeOpacity=100;strokeWidth=0.8;rounded=1;arcSize=24;edgeStyle=orthogonalEdgeStyle;startArrow=none;endArrow=block;endFill=1;exitX=0.978;exitY=0.5;exitPerimeter=0;entryX=0.022;entryY=0.5;entryPerimeter=0;lucidId=jqjom5rWPOUi;" parent="1" source="3pppeD84C1NOd-Fdeq-x-32" target="3pppeD84C1NOd-Fdeq-x-42" edge="1">
          <mxGeometry width="100" height="100" relative="1" as="geometry">
            <Array as="points" />
          </mxGeometry>
        </mxCell>
        <mxCell id="3pppeD84C1NOd-Fdeq-x-35" value="Sim" style="text;html=1;resizable=0;labelBackgroundColor=default;align=center;verticalAlign=middle;fontColor=#333333;fontSize=13;rounded=1;" parent="3pppeD84C1NOd-Fdeq-x-34" vertex="1">
          <mxGeometry relative="1" as="geometry" />
        </mxCell>
        <mxCell id="3pppeD84C1NOd-Fdeq-x-36" value="" style="html=1;jettySize=18;whiteSpace=wrap;fontSize=13;strokeColor=#333333;strokeOpacity=100;strokeWidth=0.8;rounded=1;arcSize=24;edgeStyle=orthogonalEdgeStyle;startArrow=none;endArrow=block;endFill=1;exitX=1.003;exitY=0.5;exitPerimeter=0;entryX=0.027;entryY=0.525;entryPerimeter=0;lucidId=Jqjov13X8psg;" parent="1" source="3pppeD84C1NOd-Fdeq-x-25" target="3pppeD84C1NOd-Fdeq-x-32" edge="1">
          <mxGeometry width="100" height="100" relative="1" as="geometry">
            <Array as="points" />
          </mxGeometry>
        </mxCell>
        <mxCell id="3pppeD84C1NOd-Fdeq-x-37" value="" style="strokeColor=none;fillColor=none;whiteSpace=wrap;fontSize=13;fontColor=#333333;align=center;spacing=3.8;strokeOpacity=100;fillOpacity=100;rounded=1;absoluteArcSize=1;arcSize=12;strokeWidth=0.8;html=1;" parent="1" vertex="1">
          <mxGeometry x="78" y="588" width="75" height="120" as="geometry" />
        </mxCell>
        <mxCell id="3pppeD84C1NOd-Fdeq-x-38" value="" style="shape=curlyBracket;rounded=1;whiteSpace=wrap;fontSize=13;fontColor=#333333;align=center;spacing=3.8;strokeColor=#333333;strokeOpacity=100;fillOpacity=100;fillColor=#ffffff;strokeWidth=0.8;" parent="3pppeD84C1NOd-Fdeq-x-37" vertex="1">
          <mxGeometry x="60" width="15" height="120" as="geometry" />
        </mxCell>
        <mxCell id="3pppeD84C1NOd-Fdeq-x-39" value="A cada 1 hora" style="strokeColor=none;fillColor=none;whiteSpace=wrap;fontSize=13;fontColor=#333333;align=center;spacing=3.8;strokeOpacity=100;fillOpacity=100;rounded=1;absoluteArcSize=1;arcSize=12;strokeWidth=0.8;" parent="3pppeD84C1NOd-Fdeq-x-37" vertex="1">
          <mxGeometry width="60" height="120" as="geometry" />
        </mxCell>
        <mxCell id="3pppeD84C1NOd-Fdeq-x-40" value="" style="html=1;jettySize=18;whiteSpace=wrap;fontSize=13;fontColor=#333333;align=center;strokeColor=#333333;strokeOpacity=100;strokeWidth=0.8;rounded=1;arcSize=24;startArrow=none;endArrow=block;endFill=1;exitX=0.5;exitY=0.982;exitPerimeter=0;entryX=0.5;entryY=1.008;entryPerimeter=0;lucidId=Srjo8aXtjZoZ;edgeStyle=orthogonalEdgeStyle;" parent="1" source="3pppeD84C1NOd-Fdeq-x-23" target="3pppeD84C1NOd-Fdeq-x-24" edge="1">
          <mxGeometry width="100" height="100" relative="1" as="geometry">
            <Array as="points">
              <mxPoint x="440" y="691" />
              <mxPoint x="440" y="711" />
              <mxPoint x="240" y="711" />
            </Array>
          </mxGeometry>
        </mxCell>
        <mxCell id="3pppeD84C1NOd-Fdeq-x-41" value="Não" style="text;html=1;resizable=0;labelBackgroundColor=default;align=center;verticalAlign=middle;fontColor=#333333;fontSize=13;rounded=1;" parent="3pppeD84C1NOd-Fdeq-x-40" vertex="1">
          <mxGeometry relative="1" as="geometry" />
        </mxCell>
        <mxCell id="3pppeD84C1NOd-Fdeq-x-42" value="Já pago" style="html=1;overflow=block;blockSpacing=1;whiteSpace=wrap;rhombus;fontSize=13;fontColor=#333333;align=center;spacing=3.8;strokeColor=#333333;strokeOpacity=100;fillOpacity=100;rounded=1;absoluteArcSize=1;arcSize=12;fillColor=#ffffff;strokeWidth=0.8;lucidId=hujo6OIULOCQ;" parent="1" vertex="1">
          <mxGeometry x="650" y="696" width="120" height="90" as="geometry" />
        </mxCell>
        <mxCell id="3pppeD84C1NOd-Fdeq-x-43" value="Finaliza" style="html=1;overflow=block;blockSpacing=1;whiteSpace=wrap;fontSize=13;fontColor=#333333;align=center;spacing=3.8;strokeColor=#333333;strokeOpacity=100;fillOpacity=100;rounded=1;absoluteArcSize=1;arcSize=12;fillColor=#f2f3f5;strokeWidth=0.8;lucidId=zwjoqKtry1Gz;" parent="1" vertex="1">
          <mxGeometry x="851" y="661" width="151" height="46" as="geometry" />
        </mxCell>
        <mxCell id="3pppeD84C1NOd-Fdeq-x-44" value="" style="html=1;jettySize=18;whiteSpace=wrap;fontSize=13;fontColor=#333333;align=center;strokeColor=#333333;strokeOpacity=100;strokeWidth=0.8;rounded=1;arcSize=24;edgeStyle=orthogonalEdgeStyle;startArrow=none;endArrow=block;endFill=1;exitX=0.5;exitY=0.018;exitPerimeter=0;entryX=-0.002;entryY=0.5;entryPerimeter=0;lucidId=HwjokSXZHjIG;" parent="1" source="3pppeD84C1NOd-Fdeq-x-42" target="3pppeD84C1NOd-Fdeq-x-43" edge="1">
          <mxGeometry width="100" height="100" relative="1" as="geometry">
            <Array as="points" />
          </mxGeometry>
        </mxCell>
        <mxCell id="3pppeD84C1NOd-Fdeq-x-45" value="Sim" style="text;html=1;resizable=0;labelBackgroundColor=default;align=center;verticalAlign=middle;fontColor=#333333;fontSize=13;rounded=1;" parent="3pppeD84C1NOd-Fdeq-x-44" vertex="1">
          <mxGeometry relative="1" as="geometry" />
        </mxCell>
        <mxCell id="3pppeD84C1NOd-Fdeq-x-46" value="" style="html=1;jettySize=18;whiteSpace=wrap;fontSize=13;fontColor=#333333;align=center;strokeColor=#333333;strokeOpacity=100;strokeWidth=0.8;rounded=1;arcSize=24;edgeStyle=orthogonalEdgeStyle;startArrow=none;endArrow=block;endFill=1;exitX=0.5;exitY=0.982;exitPerimeter=0;entryX=-0.002;entryY=0.5;entryPerimeter=0;lucidId=DxjoT5oAHlha;" parent="1" source="3pppeD84C1NOd-Fdeq-x-42" target="3pppeD84C1NOd-Fdeq-x-33" edge="1">
          <mxGeometry width="100" height="100" relative="1" as="geometry">
            <Array as="points" />
          </mxGeometry>
        </mxCell>
        <mxCell id="3pppeD84C1NOd-Fdeq-x-47" value="Não" style="text;html=1;resizable=0;labelBackgroundColor=default;align=center;verticalAlign=middle;fontColor=#333333;fontSize=13;rounded=1;" parent="3pppeD84C1NOd-Fdeq-x-46" vertex="1">
          <mxGeometry relative="1" as="geometry" />
        </mxCell>
        <mxCell id="3pppeD84C1NOd-Fdeq-x-48" value="&lt;ul style=&quot;margin: 0px; padding-left: 10px;list-style-position: inside; list-style-type:disc&quot;&gt;&lt;li style=&quot;color: rgb(51, 51, 51);&quot;&gt;&lt;span style=&quot;margin-left: 0px;margin-top: -2px;&quot;&gt;&lt;span style=&quot;font-size:13px;color:#333333;&quot;&gt;Notificação Cliente (Email)&lt;/span&gt;&lt;/span&gt;&lt;/li&gt;&lt;li style=&quot;color: rgb(51, 51, 51);&quot;&gt;&lt;span style=&quot;margin-left: 0px;margin-top: -2px;&quot;&gt;&lt;span style=&quot;font-size:13px;color:#333333;&quot;&gt;Notificação Usuário (Email)&lt;/span&gt;&lt;/span&gt;&lt;/li&gt;&lt;li style=&quot;color: rgb(51, 51, 51);&quot;&gt;&lt;span style=&quot;margin-left: 0px;margin-top: -2px;&quot;&gt;&lt;span style=&quot;font-size:13px;color:#333333;&quot;&gt;Lançamento no extrato&lt;/span&gt;&lt;/span&gt;&lt;/li&gt;&lt;li style=&quot;color: rgb(51, 51, 51);&quot;&gt;&lt;span style=&quot;margin-left: 0px;margin-top: -2px;&quot;&gt;&lt;span style=&quot;font-size:13px;color:#333333;&quot;&gt;Atualização do status do Registro&lt;/span&gt;&lt;/span&gt;&lt;/li&gt;&lt;/ul&gt;" style="group;spacingLeft=8;align=left;spacing=0;strokeColor=none;whiteSpace=wrap;overflow=block;blockSpacing=1;html=1;fontSize=13;strokeOpacity=100;fillOpacity=0;rounded=1;absoluteArcSize=1;arcSize=12;fillColor=#ffffff;strokeWidth=0.8;verticalAlign=middle;" parent="1" vertex="1">
          <mxGeometry x="1021" y="754" width="247" height="90" as="geometry" />
        </mxCell>
        <mxCell id="3pppeD84C1NOd-Fdeq-x-49" value="" style="shape=partialRectangle;right=0;fillColor=none;whiteSpace=wrap;overflow=block;blockSpacing=1;html=1;fontSize=13;strokeColor=#333333;strokeWidth=0.8;rounded=1;" parent="3pppeD84C1NOd-Fdeq-x-48" vertex="1">
          <mxGeometry width="8" height="90" relative="1" as="geometry" />
        </mxCell>
        <mxCell id="3pppeD84C1NOd-Fdeq-x-50" value="Usuário gera boleto" style="html=1;overflow=block;blockSpacing=1;whiteSpace=wrap;fontSize=13;fontColor=#333333;align=center;spacing=9;strokeOpacity=100;fillOpacity=100;rounded=1;absoluteArcSize=1;arcSize=12;fillColor=#edf5ff;strokeWidth=0.8;lucidId=uKjonKMXGH69;" parent="1" vertex="1">
          <mxGeometry x="170" y="46" width="120" height="60" as="geometry" />
        </mxCell>
        <mxCell id="3pppeD84C1NOd-Fdeq-x-51" value="Unico Registro" style="html=1;overflow=block;blockSpacing=1;whiteSpace=wrap;rhombus;fontSize=13;fontColor=#333333;align=center;spacing=3.8;strokeOpacity=100;fillOpacity=100;rounded=1;absoluteArcSize=1;arcSize=12;fillColor=#ffffff;strokeWidth=0.8;lucidId=YKjoLmBXVAYr;" parent="1" vertex="1">
          <mxGeometry x="542" y="31" width="120" height="90" as="geometry" />
        </mxCell>
        <mxCell id="3pppeD84C1NOd-Fdeq-x-52" value="Envia ao banco" style="html=1;overflow=block;blockSpacing=1;whiteSpace=wrap;fontSize=13;fontColor=#333333;align=center;spacing=9;strokeOpacity=100;fillOpacity=100;rounded=1;absoluteArcSize=1;arcSize=12;fillColor=#c3f7c8;strokeWidth=0.8;lucidId=vLjo6ZfH32T3;" parent="1" vertex="1">
          <mxGeometry x="735" y="46" width="120" height="60" as="geometry" />
        </mxCell>
        <mxCell id="3pppeD84C1NOd-Fdeq-x-53" value="Armazena no DB" style="html=1;overflow=block;blockSpacing=1;whiteSpace=wrap;shape=internalStorage;dx=10;dy=10;fontSize=13;fontColor=#333333;align=center;spacingLeft=12.8;spacingTop=12.8;spacing=3.8;strokeOpacity=100;fillOpacity=100;rounded=1;absoluteArcSize=1;arcSize=12;fillColor=#ffffff;strokeWidth=0.8;" parent="1" vertex="1">
          <mxGeometry x="356" y="31" width="120" height="90" as="geometry" />
        </mxCell>
        <mxCell id="3pppeD84C1NOd-Fdeq-x-54" value="" style="html=1;jettySize=18;whiteSpace=wrap;fontSize=13;strokeOpacity=100;strokeWidth=0.8;rounded=1;arcSize=24;edgeStyle=orthogonalEdgeStyle;startArrow=none;endArrow=block;endFill=1;exitX=1.003;exitY=0.5;exitPerimeter=0;entryX=-0.003;entryY=0.5;entryPerimeter=0;lucidId=HMjo3Z144koK;" parent="1" source="3pppeD84C1NOd-Fdeq-x-50" target="3pppeD84C1NOd-Fdeq-x-53" edge="1">
          <mxGeometry width="100" height="100" relative="1" as="geometry">
            <Array as="points" />
          </mxGeometry>
        </mxCell>
        <mxCell id="3pppeD84C1NOd-Fdeq-x-55" value="" style="html=1;jettySize=18;whiteSpace=wrap;fontSize=13;strokeOpacity=100;strokeWidth=0.8;rounded=1;arcSize=24;edgeStyle=orthogonalEdgeStyle;startArrow=none;endArrow=block;endFill=1;exitX=1.003;exitY=0.5;exitPerimeter=0;entryX=0.022;entryY=0.5;entryPerimeter=0;lucidId=TMjonN6Insse;" parent="1" source="3pppeD84C1NOd-Fdeq-x-53" target="3pppeD84C1NOd-Fdeq-x-51" edge="1">
          <mxGeometry width="100" height="100" relative="1" as="geometry">
            <Array as="points" />
          </mxGeometry>
        </mxCell>
        <mxCell id="3pppeD84C1NOd-Fdeq-x-56" value="" style="html=1;jettySize=18;whiteSpace=wrap;fontSize=13;fontColor=#333333;align=center;strokeOpacity=100;strokeWidth=0.8;rounded=1;arcSize=24;edgeStyle=orthogonalEdgeStyle;startArrow=none;endArrow=block;endFill=1;exitX=0.978;exitY=0.5;exitPerimeter=0;entryX=-0.003;entryY=0.5;entryPerimeter=0;lucidId=XMjomv008QKj;" parent="1" source="3pppeD84C1NOd-Fdeq-x-51" target="3pppeD84C1NOd-Fdeq-x-52" edge="1">
          <mxGeometry width="100" height="100" relative="1" as="geometry">
            <Array as="points" />
          </mxGeometry>
        </mxCell>
        <mxCell id="3pppeD84C1NOd-Fdeq-x-57" value="Sim" style="text;html=1;resizable=0;labelBackgroundColor=default;align=center;verticalAlign=middle;fontColor=#333333;fontSize=13;rounded=1;" parent="3pppeD84C1NOd-Fdeq-x-56" vertex="1">
          <mxGeometry relative="1" as="geometry" />
        </mxCell>
        <mxCell id="3pppeD84C1NOd-Fdeq-x-58" value="Fila para registrar" style="html=1;overflow=block;blockSpacing=1;whiteSpace=wrap;fontSize=13;fontColor=#333333;align=center;spacing=3.8;strokeColor=#333333;strokeOpacity=100;fillOpacity=100;rounded=1;absoluteArcSize=1;arcSize=12;fillColor=#f2f3f5;strokeWidth=0.8;lucidId=INjodJDQuFyj;" parent="1" vertex="1">
          <mxGeometry x="534" y="183" width="136" height="50" as="geometry" />
        </mxCell>
        <mxCell id="3pppeD84C1NOd-Fdeq-x-59" value="" style="html=1;jettySize=18;whiteSpace=wrap;fontSize=13;fontColor=#333333;align=center;strokeOpacity=100;strokeWidth=0.8;rounded=1;arcSize=24;edgeStyle=orthogonalEdgeStyle;startArrow=none;endArrow=block;endFill=1;exitX=0.5;exitY=0.982;exitPerimeter=0;entryX=0.5;entryY=-0.008;entryPerimeter=0;lucidId=_NjoTWzpY7r5;dashed=1;" parent="1" source="3pppeD84C1NOd-Fdeq-x-51" target="3pppeD84C1NOd-Fdeq-x-58" edge="1">
          <mxGeometry width="100" height="100" relative="1" as="geometry">
            <Array as="points" />
          </mxGeometry>
        </mxCell>
        <mxCell id="3pppeD84C1NOd-Fdeq-x-60" value="Não" style="text;html=1;resizable=0;labelBackgroundColor=default;align=center;verticalAlign=middle;fontColor=#333333;fontSize=13;rounded=1;" parent="3pppeD84C1NOd-Fdeq-x-59" vertex="1">
          <mxGeometry relative="1" as="geometry" />
        </mxCell>
        <mxCell id="3pppeD84C1NOd-Fdeq-x-61" value="" style="html=1;jettySize=18;whiteSpace=wrap;fontSize=13;strokeOpacity=100;dashed=1;fixDash=1;strokeWidth=0.8;rounded=1;arcSize=24;edgeStyle=orthogonalEdgeStyle;startArrow=none;endArrow=block;endFill=1;exitX=0.5;exitY=1.006;exitPerimeter=0;entryX=0.022;entryY=0.5;entryPerimeter=0;lucidId=SOjovK~PB89Q;" parent="1" source="3pppeD84C1NOd-Fdeq-x-52" target="3pppeD84C1NOd-Fdeq-x-63" edge="1">
          <mxGeometry width="100" height="100" relative="1" as="geometry">
            <Array as="points" />
          </mxGeometry>
        </mxCell>
        <mxCell id="3pppeD84C1NOd-Fdeq-x-62" value="Retorna Dados" style="text;html=1;resizable=0;labelBackgroundColor=default;align=center;verticalAlign=middle;fontColor=#333333;fontSize=13;rounded=1;" parent="3pppeD84C1NOd-Fdeq-x-61" vertex="1">
          <mxGeometry relative="1" as="geometry" />
        </mxCell>
        <mxCell id="3pppeD84C1NOd-Fdeq-x-63" value="Registrado" style="html=1;overflow=block;blockSpacing=1;whiteSpace=wrap;rhombus;fontSize=13;fontColor=#333333;align=center;spacing=3.8;strokeOpacity=100;fillOpacity=100;rounded=1;absoluteArcSize=1;arcSize=12;fillColor=#ffffff;strokeWidth=0.8;lucidId=TPjoK5ssqBcX;" parent="1" vertex="1">
          <mxGeometry x="967" y="31" width="120" height="90" as="geometry" />
        </mxCell>
        <mxCell id="3pppeD84C1NOd-Fdeq-x-64" value="Registra log" style="html=1;overflow=block;blockSpacing=1;whiteSpace=wrap;fontSize=13;fontColor=#333333;align=center;spacing=3.8;strokeColor=#333333;strokeOpacity=100;fillOpacity=100;rounded=1;absoluteArcSize=1;arcSize=12;fillColor=#ffd9d9;strokeWidth=0.8;lucidId=gQjoCoxw5Wjo;" parent="1" vertex="1">
          <mxGeometry x="967" y="173" width="120" height="70" as="geometry" />
        </mxCell>
        <mxCell id="3pppeD84C1NOd-Fdeq-x-65" value="Erro de conexão" style="html=1;overflow=block;blockSpacing=1;whiteSpace=wrap;rhombus;fontSize=13;fontColor=#333333;align=center;spacing=3.8;strokeOpacity=100;fillOpacity=100;rounded=1;absoluteArcSize=1;arcSize=12;fillColor=#ffffff;strokeWidth=0.8;lucidId=YRjoTdgwOy1t;" parent="1" vertex="1">
          <mxGeometry x="742" y="163" width="120" height="90" as="geometry" />
        </mxCell>
        <mxCell id="3pppeD84C1NOd-Fdeq-x-66" value="" style="html=1;jettySize=18;whiteSpace=wrap;fontSize=13;strokeOpacity=100;strokeWidth=0.8;rounded=1;arcSize=24;edgeStyle=orthogonalEdgeStyle;startArrow=none;endArrow=block;endFill=1;exitX=-0.003;exitY=0.5;exitPerimeter=0;entryX=0.978;entryY=0.5;entryPerimeter=0;lucidId=fSjodAKzYRe4;" parent="1" source="3pppeD84C1NOd-Fdeq-x-64" target="3pppeD84C1NOd-Fdeq-x-65" edge="1">
          <mxGeometry width="100" height="100" relative="1" as="geometry">
            <Array as="points" />
          </mxGeometry>
        </mxCell>
        <mxCell id="3pppeD84C1NOd-Fdeq-x-67" value="" style="html=1;jettySize=18;whiteSpace=wrap;fontSize=13;fontColor=#333333;align=center;strokeOpacity=100;strokeWidth=0.8;rounded=1;arcSize=24;edgeStyle=orthogonalEdgeStyle;startArrow=none;endArrow=block;endFill=1;exitX=0.022;exitY=0.5;exitPerimeter=0;entryX=1.003;entryY=0.5;entryPerimeter=0;lucidId=TSjoGTPGhj7K;" parent="1" source="3pppeD84C1NOd-Fdeq-x-65" target="3pppeD84C1NOd-Fdeq-x-58" edge="1">
          <mxGeometry width="100" height="100" relative="1" as="geometry">
            <Array as="points" />
          </mxGeometry>
        </mxCell>
        <mxCell id="3pppeD84C1NOd-Fdeq-x-68" value="Sim" style="text;html=1;resizable=0;labelBackgroundColor=default;align=center;verticalAlign=middle;fontColor=#333333;fontSize=13;rounded=1;" parent="3pppeD84C1NOd-Fdeq-x-67" vertex="1">
          <mxGeometry relative="1" as="geometry" />
        </mxCell>
        <mxCell id="3pppeD84C1NOd-Fdeq-x-69" value="" style="html=1;jettySize=18;whiteSpace=wrap;fontSize=13;fontColor=#333333;align=center;strokeOpacity=100;strokeWidth=0.8;rounded=1;arcSize=24;edgeStyle=orthogonalEdgeStyle;startArrow=none;endArrow=block;endFill=1;exitX=0.5;exitY=0.982;exitPerimeter=0;entryX=0.5;entryY=-0.005;entryPerimeter=0;lucidId=YUjooqnghffl;" parent="1" source="3pppeD84C1NOd-Fdeq-x-63" target="3pppeD84C1NOd-Fdeq-x-64" edge="1">
          <mxGeometry width="100" height="100" relative="1" as="geometry">
            <Array as="points" />
          </mxGeometry>
        </mxCell>
        <mxCell id="3pppeD84C1NOd-Fdeq-x-70" value="Não" style="text;html=1;resizable=0;labelBackgroundColor=default;align=center;verticalAlign=middle;fontColor=#333333;fontSize=13;rounded=1;" parent="3pppeD84C1NOd-Fdeq-x-69" vertex="1">
          <mxGeometry relative="1" as="geometry" />
        </mxCell>
        <mxCell id="3pppeD84C1NOd-Fdeq-x-71" value="Marca como registrado" style="html=1;overflow=block;blockSpacing=1;whiteSpace=wrap;fontSize=13;fontColor=#1071e5;align=center;spacing=3.8;strokeColor=#1071e5;strokeOpacity=100;fillOpacity=100;rounded=1;absoluteArcSize=1;arcSize=12;fillColor=#ffffff;strokeWidth=0.8;lucidId=.Ujo8ZMA.ZLq;" parent="1" vertex="1">
          <mxGeometry x="1153" y="53" width="170" height="46" as="geometry" />
        </mxCell>
        <mxCell id="3pppeD84C1NOd-Fdeq-x-72" value="" style="html=1;jettySize=18;whiteSpace=wrap;fontSize=13;fontColor=#333333;align=center;strokeOpacity=100;strokeWidth=0.8;rounded=1;arcSize=24;edgeStyle=orthogonalEdgeStyle;startArrow=none;endArrow=block;endFill=1;exitX=0.978;exitY=0.5;exitPerimeter=0;entryX=-0.002;entryY=0.5;entryPerimeter=0;lucidId=xVjorC68pqaJ;" parent="1" source="3pppeD84C1NOd-Fdeq-x-63" target="3pppeD84C1NOd-Fdeq-x-71" edge="1">
          <mxGeometry width="100" height="100" relative="1" as="geometry">
            <Array as="points" />
          </mxGeometry>
        </mxCell>
        <mxCell id="3pppeD84C1NOd-Fdeq-x-73" value="Sim" style="text;html=1;resizable=0;labelBackgroundColor=default;align=center;verticalAlign=middle;fontColor=#333333;fontSize=13;rounded=1;" parent="3pppeD84C1NOd-Fdeq-x-72" vertex="1">
          <mxGeometry relative="1" as="geometry" />
        </mxCell>
        <mxCell id="3pppeD84C1NOd-Fdeq-x-74" value="Erro do usuario" style="html=1;overflow=block;blockSpacing=1;whiteSpace=wrap;rhombus;fontSize=13;fontColor=#333333;align=center;spacing=3.8;strokeOpacity=100;fillOpacity=100;rounded=1;absoluteArcSize=1;arcSize=12;fillColor=#ffffff;strokeWidth=0.8;lucidId=pXjoUR47K2xX;" parent="1" vertex="1">
          <mxGeometry x="742" y="315" width="120" height="90" as="geometry" />
        </mxCell>
        <mxCell id="3pppeD84C1NOd-Fdeq-x-75" value="Marca como erro" style="html=1;overflow=block;blockSpacing=1;whiteSpace=wrap;fontSize=13;fontColor=#e81313;align=center;spacing=3.8;strokeColor=#e81313;strokeOpacity=100;fillOpacity=100;rounded=1;absoluteArcSize=1;arcSize=12;fillColor=#ffffff;strokeWidth=0.8;lucidId=IXjo6mFaqeUz;" parent="1" vertex="1">
          <mxGeometry x="530" y="337" width="147" height="46" as="geometry" />
        </mxCell>
        <mxCell id="3pppeD84C1NOd-Fdeq-x-76" value="" style="html=1;jettySize=18;whiteSpace=wrap;fontSize=13;fontColor=#333333;align=center;strokeOpacity=100;strokeWidth=0.8;rounded=1;arcSize=24;edgeStyle=orthogonalEdgeStyle;startArrow=none;endArrow=block;endFill=1;exitX=0.022;exitY=0.5;exitPerimeter=0;lucidId=2Xjos6nykxm3;" parent="1" source="3pppeD84C1NOd-Fdeq-x-74" edge="1">
          <mxGeometry width="100" height="100" relative="1" as="geometry">
            <Array as="points" />
            <mxPoint x="681" y="360" as="targetPoint" />
          </mxGeometry>
        </mxCell>
        <mxCell id="3pppeD84C1NOd-Fdeq-x-77" value="Sim" style="text;html=1;resizable=0;labelBackgroundColor=default;align=center;verticalAlign=middle;fontColor=#333333;fontSize=13;rounded=1;" parent="3pppeD84C1NOd-Fdeq-x-76" vertex="1">
          <mxGeometry relative="1" as="geometry" />
        </mxCell>
        <mxCell id="3pppeD84C1NOd-Fdeq-x-78" value="" style="html=1;jettySize=18;whiteSpace=wrap;fontSize=13;fontColor=#333333;align=center;strokeOpacity=100;strokeWidth=0.8;rounded=1;arcSize=24;edgeStyle=orthogonalEdgeStyle;startArrow=none;endArrow=block;endFill=1;exitX=0.5;exitY=0.982;exitPerimeter=0;entryX=0.5;entryY=0.018;entryPerimeter=0;lucidId=bYjoSsN2-UP.;" parent="1" source="3pppeD84C1NOd-Fdeq-x-65" target="3pppeD84C1NOd-Fdeq-x-74" edge="1">
          <mxGeometry width="100" height="100" relative="1" as="geometry">
            <Array as="points" />
          </mxGeometry>
        </mxCell>
        <mxCell id="3pppeD84C1NOd-Fdeq-x-79" value="Não" style="text;html=1;resizable=0;labelBackgroundColor=default;align=center;verticalAlign=middle;fontColor=#333333;fontSize=13;rounded=1;" parent="3pppeD84C1NOd-Fdeq-x-78" vertex="1">
          <mxGeometry relative="1" as="geometry" />
        </mxCell>
        <mxCell id="3pppeD84C1NOd-Fdeq-x-80" value="&lt;ul style=&quot;margin: 0px; padding-left: 10px;list-style-position: inside; list-style-type:disc&quot;&gt;&lt;li style=&quot;color: rgb(51, 51, 51);&quot;&gt;&lt;span style=&quot;margin-left: 0px;margin-top: -2px;&quot;&gt;&lt;span style=&quot;font-size:13px;color:#333333;&quot;&gt;Notificação Cliente (Email)&lt;/span&gt;&lt;/span&gt;&lt;/li&gt;&lt;li style=&quot;color: rgb(51, 51, 51);&quot;&gt;&lt;span style=&quot;margin-left: 0px;margin-top: -2px;&quot;&gt;&lt;span style=&quot;font-size:13px;color:#333333;&quot;&gt;Notificação Usuário (Email)&lt;/span&gt;&lt;/span&gt;&lt;/li&gt;&lt;li style=&quot;color: rgb(51, 51, 51);&quot;&gt;&lt;span style=&quot;margin-left: 0px;margin-top: -2px;&quot;&gt;&lt;span style=&quot;font-size:13px;color:#333333;&quot;&gt;Atualização do status do Registro&lt;/span&gt;&lt;/span&gt;&lt;/li&gt;&lt;/ul&gt;" style="group;spacingLeft=8;align=left;spacing=0;strokeColor=none;whiteSpace=wrap;overflow=block;blockSpacing=1;html=1;fontSize=13;strokeOpacity=100;fillOpacity=0;rounded=1;absoluteArcSize=1;arcSize=12;fillColor=#ffffff;strokeWidth=0.8;verticalAlign=middle;" parent="1" vertex="1">
          <mxGeometry x="1345" y="46" width="247" height="90" as="geometry" />
        </mxCell>
        <mxCell id="3pppeD84C1NOd-Fdeq-x-81" value="" style="shape=partialRectangle;right=0;fillColor=none;whiteSpace=wrap;overflow=block;blockSpacing=1;html=1;fontSize=13;strokeColor=#333333;strokeWidth=0.8;rounded=1;" parent="3pppeD84C1NOd-Fdeq-x-80" vertex="1">
          <mxGeometry width="8" height="90" relative="1" as="geometry" />
        </mxCell>
        <mxCell id="3pppeD84C1NOd-Fdeq-x-82" value="" style="strokeColor=none;fillColor=none;whiteSpace=wrap;fontSize=13;fontColor=#333333;align=right;spacingLeft=13.5;spacing=3.8;strokeOpacity=100;fillOpacity=100;rounded=1;absoluteArcSize=1;arcSize=12;strokeWidth=0.8;html=1;" parent="1" vertex="1">
          <mxGeometry x="263" y="322" width="251" height="83" as="geometry" />
        </mxCell>
        <mxCell id="3pppeD84C1NOd-Fdeq-x-83" value="" style="shape=curlyBracket;rounded=1;whiteSpace=wrap;fontSize=13;fontColor=#333333;align=center;spacingLeft=13.5;spacing=3.8;strokeOpacity=100;fillOpacity=100;fillColor=#ffffff;strokeWidth=0.8;" parent="3pppeD84C1NOd-Fdeq-x-82" vertex="1">
          <mxGeometry x="240.625" width="10.375" height="83" as="geometry" />
        </mxCell>
        <mxCell id="3pppeD84C1NOd-Fdeq-x-84" value="&lt;div align=&quot;right&quot;&gt;&lt;ul style=&quot;margin: 0px; padding-left: 10px;list-style-position: inside; list-style-type:disc&quot;&gt;&lt;li style=&quot;color: rgb(51, 51, 51);&quot;&gt;&lt;span style=&quot;margin-left: 0px;margin-top: -2px;&quot;&gt;&lt;span style=&quot;font-size:13px;color:#333333;&quot;&gt;Notificação Cliente (Email)&lt;/span&gt;&lt;/span&gt;&lt;/li&gt;&lt;li style=&quot;color: rgb(51, 51, 51);&quot;&gt;&lt;span style=&quot;margin-left: 0px;margin-top: -2px;&quot;&gt;&lt;span style=&quot;font-size:13px;color:#333333;&quot;&gt;Notificação Usuário (Email)&lt;/span&gt;&lt;/span&gt;&lt;/li&gt;&lt;li style=&quot;color: rgb(51, 51, 51);&quot;&gt;&lt;span style=&quot;margin-left: 0px;margin-top: -2px;&quot;&gt;&lt;span style=&quot;font-size:13px;color:#333333;&quot;&gt;Atualização do status do Registro&lt;/span&gt;&lt;/span&gt;&lt;/li&gt;&lt;/ul&gt;&lt;/div&gt;" style="strokeColor=none;fillColor=none;whiteSpace=wrap;overflow=block;blockSpacing=1;html=1;fontSize=13;spacing=3.8;strokeOpacity=100;fillOpacity=100;rounded=1;absoluteArcSize=1;arcSize=12;strokeWidth=0.8;align=right;" parent="3pppeD84C1NOd-Fdeq-x-82" vertex="1">
          <mxGeometry width="240.625" height="83" as="geometry" />
        </mxCell>
        <mxCell id="3pppeD84C1NOd-Fdeq-x-85" value="Notifica DEV" style="html=1;overflow=block;blockSpacing=1;whiteSpace=wrap;fontSize=13;fontColor=#333333;align=center;spacing=3.8;strokeColor=#e81313;strokeOpacity=100;fillOpacity=100;rounded=1;absoluteArcSize=1;arcSize=12;fillColor=#ffd9d9;strokeWidth=0.8;lucidId=j4joMUXSo6YP;" parent="1" vertex="1">
          <mxGeometry x="951" y="337" width="151" height="46" as="geometry" />
        </mxCell>
        <mxCell id="3pppeD84C1NOd-Fdeq-x-86" value="" style="html=1;jettySize=18;whiteSpace=wrap;fontSize=13;fontColor=#333333;align=center;strokeOpacity=100;strokeWidth=0.8;rounded=1;arcSize=24;edgeStyle=orthogonalEdgeStyle;startArrow=none;endArrow=block;endFill=1;exitX=0.978;exitY=0.5;exitPerimeter=0;entryX=-0.002;entryY=0.5;entryPerimeter=0;lucidId=R4joy8EpEGjM;" parent="1" source="3pppeD84C1NOd-Fdeq-x-74" target="3pppeD84C1NOd-Fdeq-x-85" edge="1">
          <mxGeometry width="100" height="100" relative="1" as="geometry">
            <Array as="points" />
          </mxGeometry>
        </mxCell>
        <mxCell id="3pppeD84C1NOd-Fdeq-x-87" value="Não" style="text;html=1;resizable=0;labelBackgroundColor=default;align=center;verticalAlign=middle;fontColor=#333333;fontSize=13;rounded=1;" parent="3pppeD84C1NOd-Fdeq-x-86" vertex="1">
          <mxGeometry relative="1" as="geometry" />
        </mxCell>
        <mxCell id="3pppeD84C1NOd-Fdeq-x-88" value="" style="html=1;jettySize=18;whiteSpace=wrap;fontSize=13;fontColor=#333333;align=center;strokeOpacity=100;strokeWidth=0.8;rounded=1;arcSize=24;edgeStyle=orthogonalEdgeStyle;startArrow=none;endArrow=block;endFill=1;exitX=0.5;exitY=0.018;exitPerimeter=0;lucidId=NckonjpMZL82;" parent="1" source="3pppeD84C1NOd-Fdeq-x-32" edge="1">
          <mxGeometry width="100" height="100" relative="1" as="geometry">
            <Array as="points" />
            <mxPoint x="240" y="710" as="targetPoint" />
          </mxGeometry>
        </mxCell>
        <mxCell id="3pppeD84C1NOd-Fdeq-x-89" value="Não" style="text;html=1;resizable=0;labelBackgroundColor=default;align=center;verticalAlign=middle;fontColor=#333333;fontSize=13;rounded=1;" parent="3pppeD84C1NOd-Fdeq-x-88" vertex="1">
          <mxGeometry relative="1" as="geometry" />
        </mxCell>
        <mxCell id="3pppeD84C1NOd-Fdeq-x-90" value="Lista vencidos (28 dias)" style="html=1;overflow=block;blockSpacing=1;whiteSpace=wrap;fontSize=13;fontColor=#333333;align=center;spacing=9;strokeColor=#333333;strokeOpacity=100;fillOpacity=100;rounded=1;absoluteArcSize=1;arcSize=12;fillColor=#fff7a1;strokeWidth=0.8;lucidId=6hkoGUE7Gn-u;" parent="1" vertex="1">
          <mxGeometry x="170" y="1286" width="170" height="50" as="geometry" />
        </mxCell>
        <mxCell id="3pppeD84C1NOd-Fdeq-x-91" value="" style="strokeColor=none;fillColor=none;whiteSpace=wrap;fontSize=13;fontColor=#333333;align=center;spacing=3.8;strokeOpacity=100;fillOpacity=100;rounded=1;absoluteArcSize=1;arcSize=12;strokeWidth=0.8;html=1;" parent="1" vertex="1">
          <mxGeometry x="46" y="1251" width="106" height="120" as="geometry" />
        </mxCell>
        <mxCell id="3pppeD84C1NOd-Fdeq-x-92" value="" style="shape=curlyBracket;rounded=1;whiteSpace=wrap;fontSize=13;fontColor=#333333;align=center;spacing=3.8;strokeColor=#333333;strokeOpacity=100;fillOpacity=100;fillColor=#ffffff;strokeWidth=0.8;" parent="3pppeD84C1NOd-Fdeq-x-91" vertex="1">
          <mxGeometry x="91" width="15" height="120" as="geometry" />
        </mxCell>
        <mxCell id="3pppeD84C1NOd-Fdeq-x-93" value="Todos os dias às 1am" style="strokeColor=none;fillColor=none;whiteSpace=wrap;fontSize=13;fontColor=#333333;align=center;spacing=3.8;strokeOpacity=100;fillOpacity=100;rounded=1;absoluteArcSize=1;arcSize=12;strokeWidth=0.8;" parent="3pppeD84C1NOd-Fdeq-x-91" vertex="1">
          <mxGeometry width="91" height="120" as="geometry" />
        </mxCell>
        <mxCell id="3pppeD84C1NOd-Fdeq-x-94" value="Vencido" style="html=1;overflow=block;blockSpacing=1;whiteSpace=wrap;rhombus;fontSize=13;fontColor=#333333;align=center;spacing=3.8;strokeColor=#333333;strokeOpacity=100;fillOpacity=100;rounded=1;absoluteArcSize=1;arcSize=12;fillColor=#ffffff;strokeWidth=0.8;lucidId=6hkoj9Jwpza6;" parent="1" vertex="1">
          <mxGeometry x="371" y="1263" width="120" height="90" as="geometry" />
        </mxCell>
        <mxCell id="3pppeD84C1NOd-Fdeq-x-95" value="Marca como vencido" style="html=1;overflow=block;blockSpacing=1;whiteSpace=wrap;fontSize=13;fontColor=#cc4e00;align=center;spacing=3.8;strokeColor=#cc4e00;strokeOpacity=100;fillOpacity=100;rounded=1;absoluteArcSize=1;arcSize=12;fillColor=#ffffff;strokeWidth=0.8;lucidId=6hkoQC1AIc5S;" parent="1" vertex="1">
          <mxGeometry x="1058" y="1192" width="151" height="46" as="geometry" />
        </mxCell>
        <mxCell id="3pppeD84C1NOd-Fdeq-x-96" value="" style="html=1;jettySize=18;whiteSpace=wrap;fontSize=13;fontColor=#333333;align=center;strokeColor=#333333;strokeOpacity=100;strokeWidth=0.8;rounded=1;arcSize=24;edgeStyle=orthogonalEdgeStyle;startArrow=none;endArrow=block;endFill=1;exitX=0.978;exitY=0.5;exitPerimeter=0;lucidId=6hkocQA1S9lV;entryX=0.441;entryY=0.992;entryDx=0;entryDy=0;entryPerimeter=0;dashed=1;" parent="1" source="3pppeD84C1NOd-Fdeq-x-94" target="3pppeD84C1NOd-Fdeq-x-101" edge="1">
          <mxGeometry width="100" height="100" relative="1" as="geometry">
            <Array as="points" />
            <mxPoint x="530" y="1250" as="targetPoint" />
          </mxGeometry>
        </mxCell>
        <mxCell id="3pppeD84C1NOd-Fdeq-x-97" value="Sim" style="text;html=1;resizable=0;labelBackgroundColor=default;align=center;verticalAlign=middle;fontColor=#333333;fontSize=13;rounded=1;" parent="3pppeD84C1NOd-Fdeq-x-96" vertex="1">
          <mxGeometry relative="1" as="geometry" />
        </mxCell>
        <mxCell id="3pppeD84C1NOd-Fdeq-x-98" value="" style="html=1;jettySize=18;whiteSpace=wrap;fontSize=13;strokeColor=#333333;strokeOpacity=100;strokeWidth=0.8;rounded=1;arcSize=24;edgeStyle=orthogonalEdgeStyle;startArrow=none;endArrow=block;endFill=1;exitX=1.002;exitY=0.5;exitPerimeter=0;entryX=0.027;entryY=0.525;entryPerimeter=0;lucidId=6hkohkV6CH7g;" parent="1" source="3pppeD84C1NOd-Fdeq-x-90" target="3pppeD84C1NOd-Fdeq-x-94" edge="1">
          <mxGeometry width="100" height="100" relative="1" as="geometry">
            <Array as="points" />
          </mxGeometry>
        </mxCell>
        <mxCell id="3pppeD84C1NOd-Fdeq-x-99" value="&lt;ul style=&quot;margin: 0px; padding-left: 10px;list-style-position: inside; list-style-type:disc&quot;&gt;&lt;li style=&quot;color: rgb(51, 51, 51);&quot;&gt;&lt;span style=&quot;margin-left: 0px;margin-top: -2px;&quot;&gt;&lt;span style=&quot;font-size:13px;color:#333333;&quot;&gt;Notificação Cliente (Email)&lt;/span&gt;&lt;/span&gt;&lt;/li&gt;&lt;li style=&quot;color: rgb(51, 51, 51);&quot;&gt;&lt;span style=&quot;margin-left: 0px;margin-top: -2px;&quot;&gt;&lt;span style=&quot;font-size:13px;color:#333333;&quot;&gt;Notificação Usuário (Email)&lt;/span&gt;&lt;/span&gt;&lt;/li&gt;&lt;li style=&quot;color: rgb(51, 51, 51);&quot;&gt;&lt;span style=&quot;margin-left: 0px;margin-top: -2px;&quot;&gt;&lt;span style=&quot;font-size:13px;color:#333333;&quot;&gt;Atualização do status do Registro&lt;/span&gt;&lt;/span&gt;&lt;/li&gt;&lt;/ul&gt;" style="group;spacingLeft=8;align=left;spacing=0;strokeColor=none;whiteSpace=wrap;overflow=block;blockSpacing=1;html=1;fontSize=13;strokeOpacity=100;fillOpacity=0;rounded=1;absoluteArcSize=1;arcSize=12;fillColor=#ffffff;strokeWidth=0.8;verticalAlign=middle;" parent="1" vertex="1">
          <mxGeometry x="1226" y="1170" width="247" height="90" as="geometry" />
        </mxCell>
        <mxCell id="3pppeD84C1NOd-Fdeq-x-100" value="" style="shape=partialRectangle;right=0;fillColor=none;whiteSpace=wrap;overflow=block;blockSpacing=1;html=1;fontSize=13;strokeColor=#333333;strokeWidth=0.8;rounded=1;" parent="3pppeD84C1NOd-Fdeq-x-99" vertex="1">
          <mxGeometry width="8" height="90" relative="1" as="geometry" />
        </mxCell>
        <mxCell id="3pppeD84C1NOd-Fdeq-x-101" value="Fila para baixa" style="html=1;overflow=block;blockSpacing=1;whiteSpace=wrap;fontSize=13;fontColor=#333333;align=center;spacing=3.8;strokeColor=#333333;strokeOpacity=100;fillOpacity=100;rounded=1;absoluteArcSize=1;arcSize=12;fillColor=#f2f3f5;strokeWidth=0.8;lucidId=~lkow6xaxmgD;" parent="1" vertex="1">
          <mxGeometry x="498" y="1185" width="136" height="50" as="geometry" />
        </mxCell>
        <mxCell id="3pppeD84C1NOd-Fdeq-x-112" value="" style="edgeStyle=orthogonalEdgeStyle;rounded=1;orthogonalLoop=1;jettySize=auto;html=1;exitX=0.5;exitY=0;exitDx=0;exitDy=0;" parent="1" source="3pppeD84C1NOd-Fdeq-x-103" edge="1">
          <mxGeometry relative="1" as="geometry">
            <mxPoint x="918.21" y="1163" as="sourcePoint" />
            <mxPoint x="918.21" y="1113" as="targetPoint" />
          </mxGeometry>
        </mxCell>
        <mxCell id="3pppeD84C1NOd-Fdeq-x-124" value="Não" style="edgeLabel;html=1;align=center;verticalAlign=middle;resizable=0;points=[];" parent="3pppeD84C1NOd-Fdeq-x-112" vertex="1" connectable="0">
          <mxGeometry x="-0.3257" y="1" relative="1" as="geometry">
            <mxPoint as="offset" />
          </mxGeometry>
        </mxCell>
        <mxCell id="3pppeD84C1NOd-Fdeq-x-103" value="Baixado" style="html=1;overflow=block;blockSpacing=1;whiteSpace=wrap;rhombus;fontSize=13;fontColor=#333333;align=center;spacing=3.8;strokeOpacity=100;fillOpacity=100;rounded=1;absoluteArcSize=1;arcSize=12;fillColor=#ffffff;strokeWidth=0.8;lucidId=loko1BcZK3E3;" parent="1" vertex="1">
          <mxGeometry x="858" y="1170" width="120" height="90" as="geometry" />
        </mxCell>
        <mxCell id="3pppeD84C1NOd-Fdeq-x-104" value="Registra log" style="html=1;overflow=block;blockSpacing=1;whiteSpace=wrap;fontSize=13;fontColor=#333333;align=center;spacing=3.8;strokeColor=#333333;strokeOpacity=100;fillOpacity=100;rounded=1;absoluteArcSize=1;arcSize=12;fillColor=#ffd9d9;strokeWidth=0.8;lucidId=lokoewHavFY2;" parent="1" vertex="1">
          <mxGeometry x="858" y="1050" width="120" height="70" as="geometry" />
        </mxCell>
        <mxCell id="3pppeD84C1NOd-Fdeq-x-105" value="Erro de conexão" style="html=1;overflow=block;blockSpacing=1;whiteSpace=wrap;rhombus;fontSize=13;fontColor=#333333;align=center;spacing=3.8;strokeOpacity=100;fillOpacity=100;rounded=1;absoluteArcSize=1;arcSize=12;fillColor=#ffffff;strokeWidth=0.8;lucidId=lokoBb11XLQz;" parent="1" vertex="1">
          <mxGeometry x="688" y="1040" width="120" height="90" as="geometry" />
        </mxCell>
        <mxCell id="3pppeD84C1NOd-Fdeq-x-106" value="Envia ao banco" style="html=1;overflow=block;blockSpacing=1;whiteSpace=wrap;fontSize=13;fontColor=#333333;align=center;spacing=9;strokeOpacity=100;fillOpacity=100;rounded=1;absoluteArcSize=1;arcSize=12;fillColor=#c3f7c8;strokeWidth=0.8;lucidId=Doko9.IkkEoz;" parent="1" vertex="1">
          <mxGeometry x="688" y="1185" width="120" height="60" as="geometry" />
        </mxCell>
        <mxCell id="3pppeD84C1NOd-Fdeq-x-107" value="" style="html=1;jettySize=18;whiteSpace=wrap;fontSize=13;strokeOpacity=100;strokeWidth=0.8;rounded=1;arcSize=24;edgeStyle=orthogonalEdgeStyle;startArrow=none;endArrow=block;endFill=1;exitX=1.003;exitY=0.5;exitPerimeter=0;entryX=-0.003;entryY=0.415;entryPerimeter=0;lucidId=TokotSoKD12N;" parent="1" source="3pppeD84C1NOd-Fdeq-x-101" target="3pppeD84C1NOd-Fdeq-x-106" edge="1">
          <mxGeometry width="100" height="100" relative="1" as="geometry">
            <Array as="points" />
          </mxGeometry>
        </mxCell>
        <mxCell id="3pppeD84C1NOd-Fdeq-x-108" value="" style="html=1;jettySize=18;whiteSpace=wrap;fontSize=13;strokeOpacity=100;strokeWidth=0.8;rounded=1;arcSize=24;edgeStyle=orthogonalEdgeStyle;startArrow=none;endArrow=block;endFill=1;exitX=1.003;exitY=0.5;exitPerimeter=0;entryX=0.022;entryY=0.5;entryPerimeter=0;lucidId=spkoVDHIL28b;dashed=1;" parent="1" source="3pppeD84C1NOd-Fdeq-x-106" target="3pppeD84C1NOd-Fdeq-x-103" edge="1">
          <mxGeometry width="100" height="100" relative="1" as="geometry">
            <Array as="points" />
          </mxGeometry>
        </mxCell>
        <mxCell id="3pppeD84C1NOd-Fdeq-x-116" value="" style="endArrow=classic;html=1;rounded=1;exitX=0;exitY=0.5;exitDx=0;exitDy=0;entryX=1;entryY=0.5;entryDx=0;entryDy=0;" parent="1" source="3pppeD84C1NOd-Fdeq-x-104" target="3pppeD84C1NOd-Fdeq-x-105" edge="1">
          <mxGeometry width="50" height="50" relative="1" as="geometry">
            <mxPoint x="638" y="1223" as="sourcePoint" />
            <mxPoint x="688" y="1173" as="targetPoint" />
          </mxGeometry>
        </mxCell>
        <mxCell id="3pppeD84C1NOd-Fdeq-x-122" value="" style="endArrow=classic;html=1;rounded=1;exitX=0;exitY=0.5;exitDx=0;exitDy=0;entryX=0.5;entryY=0;entryDx=0;entryDy=0;edgeStyle=orthogonalEdgeStyle;" parent="1" source="3pppeD84C1NOd-Fdeq-x-105" target="3pppeD84C1NOd-Fdeq-x-101" edge="1">
          <mxGeometry relative="1" as="geometry">
            <mxPoint x="588" y="1163" as="sourcePoint" />
            <mxPoint x="688" y="1163" as="targetPoint" />
          </mxGeometry>
        </mxCell>
        <mxCell id="3pppeD84C1NOd-Fdeq-x-130" value="&lt;div&gt;Sim&lt;/div&gt;" style="edgeLabel;html=1;align=center;verticalAlign=middle;resizable=0;points=[];" parent="3pppeD84C1NOd-Fdeq-x-122" vertex="1" connectable="0">
          <mxGeometry x="0.013" relative="1" as="geometry">
            <mxPoint as="offset" />
          </mxGeometry>
        </mxCell>
        <mxCell id="3pppeD84C1NOd-Fdeq-x-127" value="" style="endArrow=classic;html=1;rounded=1;exitX=1;exitY=0.5;exitDx=0;exitDy=0;entryX=0;entryY=0.5;entryDx=0;entryDy=0;" parent="1" source="3pppeD84C1NOd-Fdeq-x-103" target="3pppeD84C1NOd-Fdeq-x-95" edge="1">
          <mxGeometry relative="1" as="geometry">
            <mxPoint x="998" y="1296" as="sourcePoint" />
            <mxPoint x="1098" y="1296" as="targetPoint" />
          </mxGeometry>
        </mxCell>
        <mxCell id="3pppeD84C1NOd-Fdeq-x-128" value="Sim" style="edgeLabel;resizable=0;html=1;align=center;verticalAlign=middle;rounded=1;" parent="3pppeD84C1NOd-Fdeq-x-127" connectable="0" vertex="1">
          <mxGeometry relative="1" as="geometry" />
        </mxCell>
        <mxCell id="3pppeD84C1NOd-Fdeq-x-131" value="" style="endArrow=classic;html=1;rounded=1;exitX=0.5;exitY=1;exitDx=0;exitDy=0;entryX=0.5;entryY=1;entryDx=0;entryDy=0;edgeStyle=orthogonalEdgeStyle;" parent="1" source="3pppeD84C1NOd-Fdeq-x-94" target="3pppeD84C1NOd-Fdeq-x-90" edge="1">
          <mxGeometry relative="1" as="geometry">
            <mxPoint x="380" y="1190" as="sourcePoint" />
            <mxPoint x="480" y="1190" as="targetPoint" />
          </mxGeometry>
        </mxCell>
        <mxCell id="3pppeD84C1NOd-Fdeq-x-132" value="Não" style="edgeLabel;resizable=0;html=1;align=center;verticalAlign=middle;rounded=1;" parent="3pppeD84C1NOd-Fdeq-x-131" connectable="0" vertex="1">
          <mxGeometry relative="1" as="geometry" />
        </mxCell>
        <mxCell id="3pppeD84C1NOd-Fdeq-x-133" value="&lt;b&gt;&lt;font style=&quot;font-size: 32px;&quot;&gt;Emissão&lt;/font&gt;&lt;/b&gt;" style="text;html=1;align=center;verticalAlign=middle;resizable=0;points=[];autosize=1;strokeColor=none;fillColor=none;" parent="1" vertex="1">
          <mxGeometry x="40.5" y="-40" width="150" height="50" as="geometry" />
        </mxCell>
        <mxCell id="3pppeD84C1NOd-Fdeq-x-134" value="&lt;b&gt;&lt;font style=&quot;font-size: 32px;&quot;&gt;Pagamento&lt;/font&gt;&lt;/b&gt;" style="text;html=1;align=center;verticalAlign=middle;resizable=0;points=[];autosize=1;strokeColor=none;fillColor=none;" parent="1" vertex="1">
          <mxGeometry x="40.5" y="510" width="190" height="50" as="geometry" />
        </mxCell>
        <mxCell id="3pppeD84C1NOd-Fdeq-x-135" value="&lt;b&gt;&lt;font style=&quot;font-size: 32px;&quot;&gt;Baixa&lt;/font&gt;&lt;/b&gt;" style="text;html=1;align=center;verticalAlign=middle;resizable=0;points=[];autosize=1;strokeColor=none;fillColor=none;" parent="1" vertex="1">
          <mxGeometry x="40.5" y="1030" width="100" height="50" as="geometry" />
        </mxCell>
      </root>
    </mxGraphModel>
  </diagram>
</mxfile>
